<svg xmlns="http://www.w3.org/2000/svg" style="display:none;">
<symbol id="arrow-down-from-line" viewBox="0 0 384 512"><path d="M214.6 470.6a32 32 0 0 1-45.3 0l-128-128a32 32 0 0 1 45.3-45.3l73.4 73.4V192a32 32 0 1 1 64 0v178.7l73.4-73.4a32 32 0 0 1 45.3 45.3l-128 128zM32 96a32 32 0 1 1 0-64h320a32 32 0 1 1 0 64H32z"/></symbol>
<symbol id="arrow-up-to-line" viewBox="0 0 384 512"><path d="M32 32a32 32 0 1 0 0 64h320a32 32 0 1 0 0-64H32zm182.6 137.4a32 32 0 0 0-45.3 0l-128 128a32 32 0 0 0 45.3 45.3l73.4-73.4V448a32 32 0 1 0 64 0V269.3l73.4 73.4a32 32 0 0 0 45.3-45.3l-128-128z"/></symbol>
<symbol id="arrow-left" viewBox="0 0 512 512"><path d="M177.5 414a24 24 0 0 1-26-4.6l-144-136a23.8 23.8 0 0 1 0-34.8l144-136A24 24 0 0 1 192 120v72h288a32 32 0 0 1 32 32v64a32 32 0 0 1-32 32H192v72a24 24 0 0 1-14.5 22z"/></symbol>
<symbol id="arrow-right" viewBox="0 0 512 512"><path d="M335 414c8 4 19 2 26-5l144-136a24 24 0 0 0 0-34L361 103a24 24 0 0 0-41 17v72H32c-18 0-32 14-32 32v64c0 18 14 32 32 32h288v72c0 10 6 18 15 22z"/></symbol>
<symbol id="award" viewBox="0 0 384 512"><path d="M173.8 5.5a33 33 0 0 1 36.4 0L228 17.2c6 3.9 13 5.8 20.1 5.4l21.3-1.3a33 33 0 0 1 31.5 18.2l9.6 19.1a33.2 33.2 0 0 0 14.7 14.7l19.3 9.7a33 33 0 0 1 18.2 31.5l-1.3 21.3a33.2 33.2 0 0 0 5.4 20.1l11.8 17.8a33 33 0 0 1 0 36.4L366.8 228c-3.9 6-5.8 13-5.4 20.1l1.3 21.3a33 33 0 0 1-18.2 31.5l-19.1 9.6a33.2 33.2 0 0 0-14.7 14.7l-9.7 19.3a33 33 0 0 1-31.5 18.2l-21.3-1.3a33.2 33.2 0 0 0-20.1 5.4l-17.8 11.8a33 33 0 0 1-36.4 0L156 366.8c-6-3.9-13-5.8-20.1-5.4l-21.3 1.3a33 33 0 0 1-31.5-18.2l-9.6-19.1a33.2 33.2 0 0 0-14.7-14.7L39.5 301a33 33 0 0 1-18.2-31.5l1.3-21.3c.4-7.1-1.5-14.2-5.4-20.1L5.5 210.2a33 33 0 0 1 0-36.4L17.2 156c3.9-6 5.8-13 5.4-20.1l-1.3-21.3a33 33 0 0 1 18.2-31.5l19.1-9.6a33.8 33.8 0 0 0 14.8-14.9L83 39.5a33 33 0 0 1 31.5-18.2l21.3 1.3c7.1.4 14.2-1.5 20.1-5.4l17.9-11.7zM272 192a80 80 0 1 0-160 0 80 80 0 1 0 160 0zM1.3 441.8l43.1-102.5.4.4 9.6 19.1a65.2 65.2 0 0 0 62 35.8l21.3-1.3c.2 0 .5 0 .7.2l17.8 11.8a68 68 0 0 0 16.1 7.7l-37.6 89.3c-2.3 5.5-7.4 9.2-13.3 9.7s-11.6-2.2-14.8-7.2l-32.2-49.3-56.1 8.3a16 16 0 0 1-17.1-22zm248 60.4L211.7 413c5.6-1.8 11-4.3 16.1-7.7l17.8-11.8.7-.2 21.3 1.3a65.2 65.2 0 0 0 62-35.8l9.6-19.1.4-.4 43.2 102.5c2.2 5.3 1.4 11.4-2.1 16s-9.3 6.9-15 6l-56.1-8.3-32.2 49.2a16 16 0 0 1-28.1-2.5z"/></symbol>
<symbol id="ban" viewBox="0 0 512 512"><path d="M367.2 412.5 99.5 144.8a192 192 0 0 0 267.7 267.7zm45.3-45.3A192 192 0 0 0 144.8 99.5l267.7 267.7zM0 256a256 256 0 1 1 512 0 256 256 0 1 1-512 0z"/></symbol>
<symbol id="bars" viewBox="0 0 448 512"><path d="M0 96c0-18 14-32 32-32h384a32 32 0 1 1 0 64H32c-18 0-32-14-32-32zm0 160c0-18 14-32 32-32h384a32 32 0 1 1 0 64H32c-18 0-32-14-32-32zm448 160c0 18-14 32-32 32H32a32 32 0 1 1 0-64h384c18 0 32 14 32 32z"/></symbol>
<symbol id="bell" viewBox="0 0 448 512"><path d="M224 0c-18 0-32 14-32 32v19C119 66 64 131 64 208v19c0 47-17 92-48 127l-8 9a32 32 0 0 0 24 53h384a32 32 0 0 0 24-53l-8-9c-31-35-48-80-48-127v-19c0-77-55-142-128-157V32c0-18-14-32-32-32zm45 493c12-12 19-28 19-45H160a64 64 0 0 0 109 45z"/></symbol>
<symbol id="bell-slash" viewBox="0 0 640 512"><path d="M38.8 5.1A24 24 0 0 0 9.2 42.9l592 464a24 24 0 0 0 29.6-37.8l-90.2-70.7.6-1.3a32 32 0 0 0-5.3-34.4l-7.4-8.3A192.3 192.3 0 0 1 480 226.8V208c0-77.4-55-142-128-156.8V32a32 32 0 1 0-64 0v19.2a160 160 0 0 0-102 69.3L38.8 5.1zM406.2 416 160 222.1v4.8c0 47-17.3 92.4-48.5 127.6l-7.4 8.3A31.9 31.9 0 0 0 128 416h278.2zm-40.9 77.3A64 64 0 0 0 384 448H256a64 64 0 0 0 109.3 45.3z"/></symbol>
<symbol id="boxes-stacked" viewBox="0 0 576 512"><path d="M248 0h-40a48 48 0 0 0-48 48v112a64 64 0 0 0 64 64h128a64 64 0 0 0 64-64V48a48 48 0 0 0-48-48h-40v80a16 16 0 0 1-16 16h-48a16 16 0 0 1-16-16V0zM64 256a64 64 0 0 0-64 64v128a64 64 0 0 0 64 64h160a64 64 0 0 0 64-64V320a64 64 0 0 0-64-64h-40v80a16 16 0 0 1-16 16h-48a16 16 0 0 1-16-16v-80H64zm288 256h160a64 64 0 0 0 64-64V320a64 64 0 0 0-64-64h-40v80a16 16 0 0 1-16 16h-48a16 16 0 0 1-16-16v-80h-40c-15 0-28.8 5.1-39.7 13.8 4.9 10.4 7.7 22 7.7 34.2v160c0 12.2-2.8 23.8-7.7 34.2A63.3 63.3 0 0 0 352 512z"/></symbol>
<symbol id="buildings" viewBox="0 0 512 512"><path d="M256 0a64 64 0 0 0-64 64v64H64a64 64 0 0 0-64 64v256a64 64 0 0 0 64 64h384a64 64 0 0 0 64-64V64a64 64 0 0 0-64-64H256zM64 304a16 16 0 0 1 16-16h32a16 16 0 0 1 16 16v32a16 16 0 0 1-16 16H80a16 16 0 0 1-16-16v-32zm208 16a16 16 0 0 1-16-16v-32a16 16 0 0 1 16-16h32a16 16 0 0 1 16 16v32a16 16 0 0 1-16 16h-32zm112-16v-32a16 16 0 0 1 16-16h32a16 16 0 0 1 16 16v32a16 16 0 0 1-16 16h-32a16 16 0 0 1-16-16zM80 192h32a16 16 0 0 1 16 16v32a16 16 0 0 1-16 16H80a16 16 0 0 1-16-16v-32a16 16 0 0 1 16-16zM256 80a16 16 0 0 1 16-16h32a16 16 0 0 1 16 16v32a16 16 0 0 1-16 16h-32a16 16 0 0 1-16-16V80zm144-16h32a16 16 0 0 1 16 16v32a16 16 0 0 1-16 16h-32a16 16 0 0 1-16-16V80a16 16 0 0 1 16-16zM256 208v-32a16 16 0 0 1 16-16h32a16 16 0 0 1 16 16v32a16 16 0 0 1-16 16h-32a16 16 0 0 1-16-16zm144 16a16 16 0 0 1-16-16v-32a16 16 0 0 1 16-16h32a16 16 0 0 1 16 16v32a16 16 0 0 1-16 16h-32z"/></symbol>
<symbol id="burger-soda" viewBox="0 0 640 512"><path d="M249.3 0a56 56 0 0 0-54.5 43.2l-20 84.8H32a32 32 0 1 0 0 64h301.4c14-8.2 30.1-15.4 48.6-20.9a32 32 0 0 0-30-43.1H224.2l17.4-73.8a8.1 8.1 0 0 1 7.8-6.2H280a24 24 0 1 0 0-48h-30.7zM40 224l20.3 244a48 48 0 0 0 47.8 44H272a80 80 0 0 1-16-48c0-14.7 6.6-27.8 17-36.6a63.8 63.8 0 0 1 3.3-90.2 59.5 59.5 0 0 1-20.3-44.8 53 53 0 0 1 4.4-21.5c4.2-9.5 13.8-27.8 32.2-47L40 224zm600 68.3c0-3-.5-5.9-1.7-8.6-8.1-18.4-48.4-91.9-174.3-91.9s-166.2 73.5-174.3 91.9a21.3 21.3 0 0 0-1.7 8.6 27.5 27.5 0 0 0 27.5 27.5h296.9a27.5 27.5 0 0 0 27.5-27.5zm-256-52.5a16 16 0 1 1 0 32 16 16 0 1 1 0-32zm64 0a16 16 0 1 1 32 0 16 16 0 1 1-32 0zm96 0a16 16 0 1 1 0 32 16 16 0 1 1 0-32zm-224 112a32 32 0 1 0 0 64h288a32 32 0 1 0 0-64H320zm-16 96a16 16 0 0 0-16 16 48 48 0 0 0 48 48h256a48 48 0 0 0 48-48 16 16 0 0 0-16-16H304z"/></symbol>
<symbol id="chart-pie" viewBox="0 0 576 512"><path d="M304 240V16.6c0-9 7-16.6 16-16.6a224 224 0 0 1 224 224c0 9-7.6 16-16.6 16H304zM32 272A240 240 0 0 1 239 34.3c9.2-1.3 17 6.1 17 15.4V288l156.5 156.5a15 15 0 0 1-1.5 23.1A240 240 0 0 1 32 272zm526.4 16c9.3 0 16.6 7.8 15.4 17a239.2 239.2 0 0 1-73.9 142.3c-6 5.6-15.4 5.2-21.2-.7L320 288h238.4z"/></symbol>
<symbol id="chart-simple" viewBox="0 0 448 512"><path d="M160 80c0-26 22-48 48-48h32c27 0 48 22 48 48v352c0 27-21 48-48 48h-32c-26 0-48-21-48-48V80zM0 272c0-26 22-48 48-48h32c27 0 48 22 48 48v160c0 27-21 48-48 48H48c-26 0-48-21-48-48V272zM368 96h32c27 0 48 22 48 48v288c0 27-21 48-48 48h-32c-26 0-48-21-48-48V144c0-26 22-48 48-48z"/></symbol>
<symbol id="check" viewBox="0 0 512 512"><path d="M470.6 105.4a32 32 0 0 1 0 45.3l-256 256a32 32 0 0 1-45.3 0l-128-128a32 32 0 0 1 45.3-45.3L192 338.7l233.4-233.3a32 32 0 0 1 45.3 0z"/></symbol>
<symbol id="chevron-left" viewBox="0 0 320 512"><path d="M9.4 233.4a32 32 0 0 0 0 45.3l192 192a32 32 0 0 0 45.3-45.3L77.3 256 246.6 86.6a32 32 0 0 0-45.3-45.3l-192 192z"/></symbol>
<symbol id="chevron-right" viewBox="0 0 320 512"><path d="M310.6 233.4a32 32 0 0 1 0 45.3l-192 192a32 32 0 0 1-45.3-45.3L242.7 256 73.4 86.6a32 32 0 0 1 45.3-45.3l192 192z"/></symbol>
<symbol id="chevrons-down" viewBox="0 0 512 512"><path d="M278.6 470.6a32 32 0 0 1-45.3 0l-192-192a32 32 0 0 1 45.3-45.3L256 402.7l169.4-169.3a32 32 0 0 1 45.3 45.3l-192 192zm192-384-192 192a32 32 0 0 1-45.3 0l-192-192a32 32 0 0 1 45.3-45.3L256 210.7 425.4 41.4a32 32 0 0 1 45.3 45.3z"/></symbol>
<symbol id="chevrons-up" viewBox="0 0 512 512"><path d="M278.6 41.4a32 32 0 0 0-45.3 0l-192 192a32 32 0 0 0 45.3 45.3L256 109.3l169.4 169.3a32 32 0 0 0 45.3-45.3l-192-192zm192 384-192-192a32 32 0 0 0-45.3 0l-192 192a32 32 0 0 0 45.3 45.3L256 301.3l169.4 169.3a32 32 0 0 0 45.3-45.3z"/></symbol>
<symbol id="calendar" viewBox="0 0 448 512"><path d="M128 0c18 0 32 14 32 32v32h128V32a32 32 0 1 1 64 0v32h48c27 0 48 22 48 48v48H0v-48c0-26 22-48 48-48h48V32c0-18 14-32 32-32zM0 192h448v272c0 27-21 48-48 48H48c-26 0-48-21-48-48V192zm64 80v32c0 9 7 16 16 16h32c9 0 16-7 16-16v-32c0-9-7-16-16-16H80c-9 0-16 7-16 16zm128 0v32c0 9 7 16 16 16h32c9 0 16-7 16-16v-32c0-9-7-16-16-16h-32c-9 0-16 7-16 16zm144-16c-9 0-16 7-16 16v32c0 9 7 16 16 16h32c9 0 16-7 16-16v-32c0-9-7-16-16-16h-32zM64 400v32c0 9 7 16 16 16h32c9 0 16-7 16-16v-32c0-9-7-16-16-16H80c-9 0-16 7-16 16zm144-16c-9 0-16 7-16 16v32c0 9 7 16 16 16h32c9 0 16-7 16-16v-32c0-9-7-16-16-16h-32zm112 16v32c0 9 7 16 16 16h32c9 0 16-7 16-16v-32c0-9-7-16-16-16h-32c-9 0-16 7-16 16z"/></symbol>
<symbol id="circle-check" viewBox="0 0 512 512"><path d="M256 512a256 256 0 1 0 0-512 256 256 0 1 0 0 512zm113-303L241 337c-9 9-25 9-34 0l-64-64c-9-9-9-25 0-34s25-9 34 0l47 47 111-111c9-9 25-9 34 0s9 25 0 34z"/></symbol>
<symbol id="circle-exclamation" viewBox="0 0 512 512"><path d="M256 512a256 256 0 1 0 0-512 256 256 0 1 0 0 512zm0-384c13 0 24 11 24 24v112a24 24 0 1 1-48 0V152c0-13 11-24 24-24zm-32 224a32 32 0 1 1 64 0 32 32 0 1 1-64 0z"/></symbol>
<symbol id="circle-info" viewBox="0 0 512 512"><path d="M256 512a256 256 0 1 0 0-512 256 256 0 1 0 0 512zm-40-176h24v-64h-24a24 24 0 1 1 0-48h48c13 0 24 11 24 24v88h8a24 24 0 1 1 0 48h-80a24 24 0 1 1 0-48zm40-208a32 32 0 1 1 0 64 32 32 0 1 1 0-64z"/></symbol>
<symbol id="circle-question" viewBox="0 0 512 512"><path d="M256 512a256 256 0 1 0 0-512 256 256 0 1 0 0 512zm-86.2-346.7a56.1 56.1 0 0 1 52.8-37.3h58.3a63.1 63.1 0 0 1 31.4 117.9L280 264.4a24 24 0 0 1-48-.4v-13.5a24 24 0 0 1 12.1-20.8l44.3-25.4a15.1 15.1 0 0 0-7.5-28.2h-58.3a7.9 7.9 0 0 0-7.5 5.3l-.4 1.2a24 24 0 0 1-45.2-16l.4-1.2zM224 352a32 32 0 1 1 64 0 32 32 0 1 1-64 0z"/></symbol>
<symbol id="circle-w" viewBox="0 0 512 512"><path d="M256 512a256 256 0 1 0 0-512 256 256 0 1 0 0 512zM151 169l41 128 41-128a24 24 0 0 1 46 0l41 128 41-128c4-13 18-20 30-16s20 18 16 30l-64 200a24 24 0 0 1-46 0l-41-128-41 128a24 24 0 0 1-46 0l-64-200c-4-12 3-26 16-30s26 3 30 16z"/></symbol>
<symbol id="circle-x" viewBox="0 0 512 512"><path d="M256 512a256 256 0 1 0 0-512 256 256 0 1 0 0 512zm-81-337c9-9 25-9 34 0l47 47 47-47c9-9 24-9 34 0s9 25 0 34l-47 47 47 47c9 9 9 24 0 34s-25 9-34 0l-47-47-47 47c-10 9-25 9-34 0s-9-25 0-34l47-47-47-47c-9-10-9-25 0-34z"/></symbol>
<symbol id="clipboard-check" viewBox="0 0 384 512"><path d="M192 0c-42 0-77 27-90 64H64C29 64 0 93 0 128v320c0 35 29 64 64 64h256c35 0 64-29 64-64V128c0-35-29-64-64-64h-37a96 96 0 0 0-91-64zm0 64a32 32 0 1 1 0 64 32 32 0 1 1 0-64zm113 209L177 401c-9 9-25 9-34 0l-64-64c-9-9-9-25 0-34s25-9 34 0l47 47 111-111c9-9 25-9 34 0s9 25 0 34z"/></symbol>
<symbol id="clock" viewBox="0 0 512 512"><path d="M256 0a256 256 0 1 1 0 512 256 256 0 1 1 0-512zm-24 120v136c0 8 4 16 11 20l96 64c11 7 26 4 33-7s4-26-7-33l-85-57V120a24 24 0 1 0-48 0z"/></symbol>
<symbol id="credit-card" viewBox="0 0 576 512"><path d="M64 32C29 32 0 61 0 96v32h576V96c0-35-29-64-64-64H64zm512 192H0v192c0 35 29 64 64 64h448c35 0 64-29 64-64V224zM112 352h64c9 0 16 7 16 16s-7 16-16 16h-64c-9 0-16-7-16-16s7-16 16-16zm112 16c0-9 7-16 16-16h128c9 0 16 7 16 16s-7 16-16 16H240c-9 0-16-7-16-16z"/></symbol>
<symbol id="crown" viewBox="0 0 576 512"><path d="M309 106a40 40 0 1 0-42 0l-57 115c-9 18-33 23-49 10l-89-71a40 40 0 1 0-32 16h1l45 251c6 31 32 53 63 53h278c31 0 57-22 63-53l45-251h1a40 40 0 1 0-32-16l-89 71c-16 13-40 8-49-10l-57-115z"/></symbol>
<symbol id="discord" viewBox="0 0 640 512"><path d="M524.5 69.8a1.5 1.5 0 0 0-.8-.7A485.1 485.1 0 0 0 404.1 32a1.8 1.8 0 0 0-1.9.9 337.5 337.5 0 0 0-14.9 30.6 447.8 447.8 0 0 0-134.4 0 309.5 309.5 0 0 0-15.1-30.6 1.9 1.9 0 0 0-1.9-.9 483.7 483.7 0 0 0-119.8 37.1 1.7 1.7 0 0 0-.8.7C39.1 183.7 18.2 294.7 28.4 404.4a2 2 0 0 0 .8 1.4A487.7 487.7 0 0 0 176 479.9a1.9 1.9 0 0 0 2.1-.7 348.2 348.2 0 0 0 30-48.8 1.9 1.9 0 0 0-1-2.6 321.2 321.2 0 0 1-45.9-21.9 1.9 1.9 0 0 1-.2-3.1 220 220 0 0 0 9.1-7.1 1.8 1.8 0 0 1 1.9-.3 348 348 0 0 0 295.5 0 1.8 1.8 0 0 1 1.9.2c2.9 2.4 6 4.9 9.1 7.2a1.9 1.9 0 0 1-.2 3.1 301.4 301.4 0 0 1-45.9 21.8 1.9 1.9 0 0 0-1 2.6 391.1 391.1 0 0 0 30 48.8 1.9 1.9 0 0 0 2.1.7 486 486 0 0 0 147.2-74.1 1.9 1.9 0 0 0 .8-1.4c12.2-126.7-20.6-236.8-87-334.5zm-302 267.8c-29 0-52.8-26.6-52.8-59.2s23.4-59.3 52.8-59.3c29.7 0 53.3 26.8 52.8 59.2 0 32.7-23.4 59.3-52.8 59.3zm195.4 0c-29 0-52.8-26.6-52.8-59.2s23.3-59.3 52.8-59.3c29.7 0 53.3 26.8 52.8 59.2 0 32.7-23.2 59.3-52.8 59.3z"/></symbol>
<symbol id="down-to-bracket" viewBox="0 0 448 512"><path d="M378 199 250 341c-7 7-15 11-24 11h-4c-9 0-18-4-24-11L70 199a23 23 0 0 1 17-39h73V32c0-18 14-32 32-32h64c18 0 32 14 32 32v128h73a23 23 0 0 1 17 39zM64 352v64c0 18 14 32 32 32h256c18 0 32-14 32-32v-64a32 32 0 1 1 64 0v64c0 53-43 96-96 96H96c-53 0-96-43-96-96v-64a32 32 0 1 1 64 0z"/></symbol>
<symbol id="ellipsis" viewBox="0 0 448 512"><path d="M8 256a56 56 0 1 1 112 0A56 56 0 1 1 8 256zm160 0a56 56 0 1 1 112 0 56 56 0 1 1 -112 0zm216-56a56 56 0 1 1 0 112 56 56 0 1 1 0-112z"/></symbol>
<symbol id="ellipsis-vertical" viewBox="0 0 128 512"><path d="M64 360a56 56 0 1 0 0 112 56 56 0 1 0 0-112zm0-160a56 56 0 1 0 0 112 56 56 0 1 0 0-112zM120 96A56 56 0 1 0 8 96a56 56 0 1 0 112 0z"/></symbol>
<symbol id="excavator" viewBox="0 0 640 512"><path d="M160 64v96h142.9l-64-96H160zm224 126.5V272a48 48 0 0 1-48 48H48a48 48 0 0 1-48-48v-64a48 48 0 0 1 48-48h48V48a48 48 0 0 1 48-48h94.9a64.1 64.1 0 0 1 53.3 28.5l78.4 117.7a79.6 79.6 0 0 1 13.4 44.4zM80 416c-8.8 0-16 7.2-16 16s7.2 16 16 16h256c8.8 0 16-7.2 16-16s-7.2-16-16-16H80zM0 432a80 80 0 0 1 80-80h256a80 80 0 1 1 0 160H80a80 80 0 0 1-80-80zm640-112v112a80 80 0 0 1-80 80h-78.1a34 34 0 0 1-24-57.9L576 336V128L416 288V160L562.7 13.3a45.3 45.3 0 0 1 77.3 32V320z"/></symbol>
<symbol id="face-laugh" viewBox="0 0 512 512"><path d="M256 512a256 256 0 1 0 0-512 256 256 0 1 0 0 512zM96.8 314.1c-3.8-13.7 7.4-26.1 21.6-26.1h275.2c14.2 0 25.5 12.4 21.6 26.1C396.2 382 332.1 432 256 432S115.8 382 96.8 314.1zM144.4 192a32 32 0 1 1 64 0 32 32 0 1 1-64 0zm192-32a32 32 0 1 1 0 64 32 32 0 1 1 0-64z"/></symbol>
<symbol id="face-smile" viewBox="0 0 512 512"><path d="M256 512a256 256 0 1 0 0-512 256 256 0 1 0 0 512zm-91.9-186.5C182 346.2 212.6 368 256 368s74-21.8 91.9-42.5a16 16 0 1 1 24.2 21 152.6 152.6 0 0 1-232.2 0 16 16 0 1 1 24.2-21zM144.4 208a32 32 0 1 1 64 0 32 32 0 1 1-64 0zm192-32a32 32 0 1 1 0 64 32 32 0 1 1 0-64z"/></symbol>
<symbol id="face-tired" viewBox="0 0 512 512"><path d="M256 512a256 256 0 1 0 0-512 256 256 0 1 0 0 512zm-91.3-183.3c22-22 53.9-40.7 91.3-40.7s69.3 18.7 91.3 40.7a148.8 148.8 0 0 1 26.4 35.4A79.7 79.7 0 0 1 384 400c0 5.2-2.6 10.2-6.9 13.2s-9.8 3.7-14.7 1.8l-20.5-7.7a240 240 0 0 0-84.3-15.3h-3.2c-28.8 0-57.3 5.2-84.3 15.3l-20.5 7.7a16 16 0 0 1-21.6-15c0-11.6 4.2-24.2 10.3-35.9 6.3-12 15.3-24.3 26.4-35.4zm-31.2-182 89.9 47.9a15.2 15.2 0 0 1 0 26.8l-89.9 47.9a12 12 0 0 1-14.7-18.1l36-43.2-36-43.2a12 12 0 0 1 14.7-18.1zM396 157.1c0 2.8-1 5.5-2.8 7.6l-36 43.2 36 43.2a12 12 0 0 1-14.7 18.1l-89.9-47.9a15.2 15.2 0 0 1 0-26.8l89.9-47.9a12 12 0 0 1 17.5 10.5z"/></symbol>
<symbol id="flag" viewBox="0 0 448 512"><path d="M64 32a32 32 0 1 0-64 0v448a32 32 0 1 0 64 0V352l64-16c41-10 85-6 123 13 44 22 95 25 142 8l34-13c13-5 21-17 21-30V66c0-23-24-38-45-28l-9 5c-47 23-101 23-148 0-35-17-75-22-113-12L64 48V32z"/></symbol>
<symbol id="flask" viewBox="0 0 448 512"><path d="M288 0H128a32 32 0 1 0 0 64v132.8c0 11.8-3.3 23.5-9.5 33.5L10.3 406.2A69.4 69.4 0 0 0 69.4 512h309.2a69.4 69.4 0 0 0 59.1-105.8L329.5 230.4a64 64 0 0 1-9.5-33.5V64a32 32 0 1 0 0-64h-32zm-96 196.8V64h64v132.8c0 23.7 6.6 46.9 19 67.1l34.5 56.1h-171l34.5-56.1c12.4-20.2 19-43.4 19-67.1z"/></symbol>
<symbol id="gas-pump" viewBox="0 0 512 512"><path d="M32 64C32 29 61 0 96 0h160c35 0 64 29 64 64v192h8c49 0 88 39 88 88v32a24 24 0 1 0 48 0V222c-28-7-48-32-48-62V96l-32-32c-9-9-9-23 0-32s23-9 32 0l77 77c12 12 19 29 19 46v221a72 72 0 1 1-144 0v-32c0-22-18-40-40-40h-8v144a32 32 0 1 1 0 64H32a32 32 0 1 1 0-64V64zm64 16v96c0 9 7 16 16 16h128c9 0 16-7 16-16V80c0-9-7-16-16-16H112c-9 0-16 7-16 16z"/></symbol>
<symbol id="gauge-circle-plus" viewBox="0 0 640 512"><path d="m496 192 8 .2A256.1 256.1 0 0 0 0 256a256 256 0 0 0 366.4 231A176 176 0 0 1 496 192zM320 352a64 64 0 1 1-88-59.3V88a24 24 0 1 1 48 0v204.7a64 64 0 0 1 40 59.3zM144 112a32 32 0 1 1 0 64 32 32 0 1 1 0-64zM64 256a32 32 0 1 1 64 0 32 32 0 1 1-64 0zm272-112a32 32 0 1 1 64 0 32 32 0 1 1-64 0zm160 368a144 144 0 1 0 0-288 144 144 0 1 0 0 288zm16-208v48h48c8.8 0 16 7.2 16 16s-7.2 16-16 16h-48v48c0 8.8-7.2 16-16 16s-16-7.2-16-16v-48h-48c-8.8 0-16-7.2-16-16s7.2-16 16-16h48v-48c0-8.8 7.2-16 16-16s16 7.2 16 16z"/></symbol>
<symbol id="gear" viewBox="0 0 512 512"><path d="M495.9 166.6c3.2 8.7.5 18.4-6.4 24.6l-43.3 39.4a193.5 193.5 0 0 1 0 50.8l43.3 39.4a22.7 22.7 0 0 1 6.4 24.6 247.9 247.9 0 0 1-15.8 34.3l-4.7 8.1c-6.6 11-14 21.4-22.1 31.2a22.7 22.7 0 0 1-24.5 6.8l-55.7-17.7a192.4 192.4 0 0 1-44 25.4l-12.5 57.1c-2 9.1-9 16.3-18.2 17.8a258.4 258.4 0 0 1-85 0 22.6 22.6 0 0 1-18.2-17.8l-12.5-57.1a192.4 192.4 0 0 1-44-25.4l-55.6 17.8c-8.8 2.8-18.6.3-24.5-6.8a254.5 254.5 0 0 1-22.1-31.2l-4.7-8.1c-6.1-11-11.4-22.4-15.8-34.3a22.7 22.7 0 0 1 6.4-24.6l43.3-39.4a196.2 196.2 0 0 1 0-50.9l-43.3-39.4a22.7 22.7 0 0 1-6.4-24.6c4.4-11.9 9.7-23.3 15.8-34.3l4.7-8.1c6.6-11 14-21.4 22.1-31.2a22.7 22.7 0 0 1 24.5-6.8l55.7 17.7a192.4 192.4 0 0 1 44-25.4l12.5-57.1c2-9.1 9-16.3 18.2-17.8a247.9 247.9 0 0 1 85-.1 22.6 22.6 0 0 1 18.2 17.8l12.5 57.1a192.4 192.4 0 0 1 44 25.4l55.7-17.7c8.8-2.8 18.6-.3 24.5 6.8 8.1 9.8 15.5 20.2 22.1 31.2l4.7 8.1c6.1 11 11.4 22.4 15.8 34.3zM256 336a80 80 0 1 0 0-160 80 80 0 0 0 0 160z"/></symbol>
<symbol id="gears" viewBox="0 0 640 512"><path d="M308.5 135.3a22 22 0 0 0 6.2-25 171 171 0 0 0-7.6-15.5l-3.1-5.4c-3-5-6.3-9.9-9.8-14.6a22 22 0 0 0-24.7-7.1L241.3 77c-10.7-8.8-23-16-36.2-20.9l-6.1-29a21.9 21.9 0 0 0-18.5-17.8 155.7 155.7 0 0 0-40.9-.1A22 22 0 0 0 121.1 27L115 56.1c-13.3 5-25.5 12.1-36.2 20.9l-28.3-9.2c-9-3-19-.5-24.7 7.1-3.5 4.7-6.8 9.6-9.9 14.6l-3 5.3c-2.8 5-5.3 10.2-7.6 15.6a22.1 22.1 0 0 0 6.2 25l22.2 19.8a128.8 128.8 0 0 0 0 41.7l-22.2 19.8a22 22 0 0 0-6.2 25 187 187 0 0 0 7.6 15.6l3 5.2c3 5.1 6.3 9.9 9.9 14.6a22 22 0 0 0 24.7 7.1l28.2-9.3c10.7 8.8 23 16 36.2 20.9l6.1 29.1a21.9 21.9 0 0 0 18.5 17.8 172 172 0 0 0 40.8 0 22 22 0 0 0 18.5-17.8l6.1-29.1c13.3-5 25.5-12.1 36.2-20.9l28.2 9.3c9 3 19 .5 24.7-7.1 3.5-4.7 6.8-9.5 9.8-14.6l3.1-5.4a171 171 0 0 0 7.6-15.5c3.7-8.7.9-18.6-6.2-25l-22.2-19.8a131 131 0 0 0 0-41.8l22.2-19.8zM208 176a48 48 0 1 1-96 0 48 48 0 0 1 96 0zm296.7 324.5a22 22 0 0 0 25 6.2 171 171 0 0 0 15.5-7.6l5.4-3.1c5-3 9.9-6.3 14.6-9.8a22 22 0 0 0 7.1-24.7l-9.3-28.2c8.8-10.7 16-23 20.9-36.2L613 391a21.9 21.9 0 0 0 17.8-18.5 172 172 0 0 0 0-40.8 22 22 0 0 0-17.8-18.5l-29.1-6.2c-5-13.3-12.1-25.5-20.9-36.2l9.3-28.2c3-9 .5-19-7.1-24.7-4.7-3.5-9.6-6.8-14.6-9.9l-5.3-3c-5-2.8-10.2-5.3-15.6-7.6a22.1 22.1 0 0 0-25 6.2l-19.8 22.2a131 131 0 0 0-41.8 0l-19.8-22.2a22 22 0 0 0-25-6.2 187 187 0 0 0-15.6 7.6l-5.2 3a144 144 0 0 0-14.6 9.9 22 22 0 0 0-7.1 24.7l9.3 28.2c-8.8 10.7-16 23-20.9 36.2l-29.1 6a21.9 21.9 0 0 0-17.8 18.5 172 172 0 0 0 0 40.8 22 22 0 0 0 17.8 18.5l29.1 6.1c5 13.3 12.1 25.5 20.9 36.2l-9.3 28.2c-3 9-.5 19 7.1 24.7 4.7 3.5 9.5 6.8 14.6 9.8l5.4 3.1a171 171 0 0 0 15.5 7.6c8.7 3.7 18.6.9 25-6.2l19.8-22.2a131 131 0 0 0 41.8 0l19.8 22.2zM464 400a48 48 0 1 1 0-96 48 48 0 0 1 0 96z"/></symbol>
<symbol id="gem" viewBox="0 0 512 512"><path d="M117 34c4-6 11-10 19-10h240c8 0 15 4 19 10l112 152c7 9 6 22-1 30L274 472a24 24 0 0 1-36 0L6 216c-8-8-8-21-1-30L117 34zm38 40c-3 2-4 7-2 10l57 96-147 12c-4 0-7 4-7 8s3 8 7 8l192 16h2l192-16c4 0 7-4 7-8s-3-8-7-8l-147-12 57-96c2-3 1-8-2-10s-8-2-11 1l-90 97-90-97c-3-3-7-4-11-1z"/></symbol>
<symbol id="graduation-cap" viewBox="0 0 640 512"><path d="M320 32c-8.1 0-16.1 1.4-23.7 4.1L15.8 137.4a24 24 0 0 0 0 45.2l57.9 20.9A164.6 164.6 0 0 0 48 291.9V320c0 28.4-10.8 57.7-22.3 80.8-6.5 13-13.9 25.8-22.5 37.6a16.1 16.1 0 0 0 8.9 25.2l64 16a16 16 0 0 0 19.5-12.4c8.6-42.8 4.3-81.2-2.1-108.7a221.1 221.1 0 0 0-13.5-42v-24.6c0-30.2 10.2-58.7 27.9-81.5 12.9-15.5 29.6-28 49.2-35.7l157-61.7a16 16 0 0 1 11.7 29.7l-157 61.7a91.8 91.8 0 0 0-32.2 21.6l159.6 57.6a70.7 70.7 0 0 0 47.4 0l280.6-101a24 24 0 0 0 0-45.2L343.7 36.1A70.7 70.7 0 0 0 320 32zM128 408c0 35.3 86 72 192 72s192-36.7 192-72l-15.3-145.4L354.5 314a101.8 101.8 0 0 1-69 0l-142.2-51.4L128 408z"/></symbol>
<symbol id="handshake" viewBox="0 0 640 512"><path d="m323.4 85.2-96.8 78.4a38.85 38.85 0 0 0-7 53.1c12.9 17.8 38 21.3 55.3 7.8l99.3-77.2c7-5.4 17-4.2 22.5 2.8s4.2 17-2.8 22.5L373 188.8 550.2 352H592c26.5 0 48-21.5 48-48V176c0-26.5-21.5-48-48-48h-80.7l-3.9-2.5L434.8 79c-15.3-9.8-33.2-15-51.4-15-21.8 0-43 7.5-60 21.2zm22.8 124.4-51.7 40.2c-31.5 24.6-77.2 18.2-100.8-14.2a70.9 70.9 0 0 1 12.7-96.8l83.2-67.3a94.49 94.49 0 0 0-36.8-7.4C234 64 215.7 69.6 200 80l-72 48H48c-26.5 0-48 21.5-48 48v128c0 26.5 21.5 48 48 48h108.2l91.4 83.4a47.94 47.94 0 0 0 67.8-3.1 48.9 48.9 0 0 0 11.1-20.6l17 15.6a48.03 48.03 0 0 0 67.8-2.9c4.5-4.9 7.8-10.6 9.9-16.5 19.4 13 45.8 10.3 62.1-7.5a48.03 48.03 0 0 0-2.9-67.8l-134.2-123z"/></symbol>
<symbol id="hashtag" viewBox="0 0 448 512"><path d="M181.3 32.4a32.01 32.01 0 0 1 26.3 36.8l-9.8 58.8h95.1l11.5-69.3c2.9-17.4 19.4-29.2 36.8-26.3s29.2 19.4 26.3 36.8l-9.7 58.8H416c17.7 0 32 14.3 32 32s-14.3 32-32 32h-68.9l-21.3 128H384c17.7 0 32 14.3 32 32s-14.3 32-32 32h-68.9l-11.5 69.3c-2.9 17.4-19.4 29.2-36.8 26.3s-29.2-19.4-26.3-36.8l9.8-58.7h-95.1l-11.5 69.3c-2.9 17.4-19.4 29.2-36.8 26.3s-29.2-19.4-26.3-36.8l9.6-58.9H32c-17.7 0-32-14.3-32-32s14.3-32 32-32h68.9l21.3-128H64c-17.7 0-32-14.3-32-32s14.3-32 32-32h68.9l11.5-69.3a32.01 32.01 0 0 1 36.8-26.3zm5.8 159.6-21.3 128h95.1l21.3-128h-95.1z"/></symbol>
<symbol id="industry" viewBox="0 0 576 512"><path d="M32 64c0-18 14-32 32-32h64c18 0 32 14 32 32v151l157-84c16-9 35 3 35 21v63l157-84c16-9 35 3 35 21v280c0 27-21 48-48 48H80c-26 0-48-21-48-48V64zm232 248c-9 0-16 7-16 16v48c0 9 7 16 16 16h48c9 0 16-7 16-16v-48c0-9-7-16-16-16h-48zm-144 16v48c0 9 7 16 16 16h48c9 0 16-7 16-16v-48c0-9-7-16-16-16h-48c-9 0-16 7-16 16zm272-16c-9 0-16 7-16 16v48c0 9 7 16 16 16h48c9 0 16-7 16-16v-48c0-9-7-16-16-16h-48z"/></symbol>
<symbol id="list" viewBox="0 0 512 512"><path d="M40 48c-13 0-24 11-24 24v48c0 13 11 24 24 24h48c13 0 24-11 24-24V72c0-13-11-24-24-24H40zm152 16a32 32 0 1 0 0 64h288a32 32 0 1 0 0-64H192zm0 160a32 32 0 1 0 0 64h288a32 32 0 1 0 0-64H192zm0 160a32 32 0 1 0 0 64h288a32 32 0 1 0 0-64H192zM16 232v48c0 13 11 24 24 24h48c13 0 24-11 24-24v-48c0-13-11-24-24-24H40c-13 0-24 11-24 24zm24 136c-13 0-24 11-24 24v48c0 13 11 24 24 24h48c13 0 24-11 24-24v-48c0-13-11-24-24-24H40z"/></symbol>
<symbol id="location-dot" viewBox="0 0 384 512"><path d="M216 499c51-64 168-220 168-307a192 192 0 0 0-384 0c0 87 117 243 168 307 13 15 35 15 48 0zm-24-371a64 64 0 1 1 0 128 64 64 0 1 1 0-128z"/></symbol>
<symbol id="lock" viewBox="0 0 448 512"><path d="M144 144v48h160v-48a80 80 0 1 0-160 0zm-64 48v-48a144 144 0 0 1 288 0v48h16a64 64 0 0 1 64 64v192a64 64 0 0 1-64 64H64a64 64 0 0 1-64-64V256a64 64 0 0 1 64-64h16z"/></symbol>
<symbol id="magnifying-glass" viewBox="0 0 512 512"><path d="M416 208c0 45.9-14.9 88.3-40 122.7l126.6 126.7a32 32 0 0 1-45.3 45.3L330.7 376A208 208 0 1 1 416 208zM208 352a144 144 0 1 0 0-288 144 144 0 1 0 0 288z"/></symbol>
<symbol id="medal" viewBox="0 0 384 512"><path d="M173.3 5.3c11.5-7 26-7 37.5 0l17.9 10.9a35.6 35.6 0 0 0 19.6 5.2l20.9-.5c13.5-.3 26 6.9 32.5 18.7l10 18.4c3.3 6.1 8.3 11 14.3 14.3l18.4 10a36 36 0 0 1 18.7 32.5l-.5 20.9a36.5 36.5 0 0 0 5.2 19.6l10.9 17.9c7 11.5 7 26 0 37.5l-10.9 17.9a35.6 35.6 0 0 0-5.2 19.6l.5 20.9c.3 13.5-6.9 26-18.7 32.5l-18.4 10c-6.1 3.3-11 8.3-14.3 14.3l-10 18.4a36 36 0 0 1-32.5 18.7l-20.9-.5a36.5 36.5 0 0 0-19.6 5.2l-17.9 10.9c-11.5 7-26 7-37.5 0l-17.9-10.9a35.6 35.6 0 0 0-19.6-5.2l-20.9.5c-13.5.3-26-6.9-32.5-18.7l-10-18.3c-3.3-6.1-8.3-11-14.3-14.3l-18.4-10A36 36 0 0 1 21 269.2l.5-20.9c.2-6.9-1.7-13.7-5.2-19.6l-11-18c-7-11.5-7-26 0-37.5l10.9-17.9a35.6 35.6 0 0 0 5.2-19.6l-.5-20.9c-.3-13.5 6.9-26 18.7-32.5L58 72.4c6.1-3.3 11-8.3 14.3-14.3l10-18.4A36 36 0 0 1 114.8 21l20.9.5c6.9.2 13.7-1.7 19.6-5.2l18-11zM272 192a80 80 0 1 0-160 0 80 80 0 1 0 160 0zM64.4 492.4 88 390a70.7 70.7 0 0 0 28.6 5.4l20.7-.5.6.2 17.6 10.7a70.2 70.2 0 0 0 72.9 0l17.7-10.8.6-.2 20.7.5c10 .2 19.7-1.7 28.6-5.4l23.6 102.4a16 16 0 0 1-20 19L192 480.6 84.4 511.4c-5.4 1.6-11.3.1-15.4-3.8s-5.8-9.7-4.6-15.2z"/></symbol>
<symbol id="message-lines" viewBox="0 0 512 512"><path d="M0 64A64 64 0 0 1 64 0h384a64 64 0 0 1 64 64v288a64 64 0 0 1-64 64H309.3l-123.7 92.8c-4.8 3.6-11.3 4.2-16.8 1.5s-8.8-8.2-8.8-14.3v-80H64a64 64 0 0 1-64-64V64zm152 80a24 24 0 1 0 0 48h208a24 24 0 1 0 0-48H152zm0 96a24 24 0 1 0 0 48h112a24 24 0 1 0 0-48H152z"/></symbol>
<symbol id="minus" viewBox="0 0 448 512"><path d="M432 256c0 18-14 32-32 32H48a32 32 0 1 1 0-64h352c18 0 32 14 32 32z"/></symbol>
<symbol id="note-sticky" viewBox="0 0 448 512"><path d="M64 32C29 32 0 61 0 96v320c0 35 29 64 64 64h224V368c0-26 22-48 48-48h112V96c0-35-29-64-64-64H64zm384 320H336c-9 0-16 7-16 16v112l32-32 64-64 32-32z"/></symbol>
<symbol id="notebook" viewBox="0 0 512 512"><path d="M64 48v56H24a24 24 0 1 0 0 48h40v80H24a24 24 0 1 0 0 48h40v80H24a24 24 0 1 0 0 48h40v56a48 48 0 0 0 48 48h80V0h-80a48 48 0 0 0-48 48zM432 0H224v512h208a48 48 0 0 0 48-48V48a48 48 0 0 0-48-48z"/></symbol>
<symbol id="paper-plane" viewBox="0 0 512 512"><path d="M498.1 5.6a32 32 0 0 1 13.5 31.2l-64 416a32 32 0 0 1-44 24.6L284 427.7l-68.5 74.1A32 32 0 0 1 160 480v-83.6c0-4 1.5-7.8 4.2-10.7l167.6-182.9a16 16 0 0 0-22.4-22.7L106 360.8l-88.3-44.2a31.9 31.9 0 0 1-1.6-56.4l448-256a32.1 32.1 0 0 1 34 1.4z"/></symbol>
<symbol id="pencil" viewBox="0 0 512 512"><path d="m410.3 231 11.3-11.3-33.9-33.9-62.1-62.1-33.9-33.9-11.3 11.3-22.6 22.6L58.6 322.9a88.7 88.7 0 0 0-22.2 37.4L1 480.7c-2.5 8.4-.2 17.5 6.1 23.7s15.3 8.5 23.7 6.1l120.3-35.4a88.7 88.7 0 0 0 37.4-22.2l199.2-199.2 22.6-22.7zM160 399.4l-9.1 22.7c-4 3.1-8.5 5.4-13.3 6.9l-78.2 23 23-78.1c1.4-4.9 3.8-9.4 6.9-13.3l22.7-9.1v32a16 16 0 0 0 16 16h32zM362.7 18.7l-14.4 14.5-22.6 22.6-11.4 11.3 33.9 33.9 62.1 62.1 33.9 33.9 11.3-11.3 22.6-22.6 14.5-14.5a64 64 0 0 0 0-90.5l-39.3-39.4a64 64 0 0 0-90.5 0zm-47.4 168-144 144c-6.2 6.2-16.4 6.2-22.6 0s-6.2-16.4 0-22.6l144-144c6.2-6.2 16.4-6.2 22.6 0s6.2 16.4 0 22.6z"/></symbol>
<symbol id="plus" viewBox="0 0 448 512"><path d="M256 80a32 32 0 1 0-64 0v144H48a32 32 0 1 0 0 64h144v144a32 32 0 1 0 64 0V288h144a32 32 0 1 0 0-64H256V80z"/></symbol>
<symbol id="ranking-star" viewBox="0 0 640 512"><path d="M353.8 54.1 330.2 6.3a11.4 11.4 0 0 0-20.4 0l-23.6 47.8-52.3 7.5a11.6 11.6 0 0 0-6.4 19.8l38 37-9 52.1a11.7 11.7 0 0 0 16.8 12.2l46.9-24.8 46.6 24.4a11.7 11.7 0 0 0 16.8-12.2l-9-52.1 38-36.6a11.7 11.7 0 0 0-6.4-19.8l-52.3-7.5zM256 256a32 32 0 0 0-32 32v192a32 32 0 0 0 32 32h128a32 32 0 0 0 32-32V288a32 32 0 0 0-32-32H256zM32 320a32 32 0 0 0-32 32v128a32 32 0 0 0 32 32h128a32 32 0 0 0 32-32V352a32 32 0 0 0-32-32H32zm416 96v64a32 32 0 0 0 32 32h128a32 32 0 0 0 32-32v-64a32 32 0 0 0-32-32H480a32 32 0 0 0-32 32z"/></symbol>
<symbol id="recycle" viewBox="0 0 576 512"><path d="M206.7 45.1a95.8 95.8 0 0 1 162.6 0l38.6 61.7 27-15.6a24 24 0 0 1 35.2 27l-23.4 87.4a24 24 0 0 1-29.4 17l-87.4-23.4a24 24 0 0 1-5.8-43.9l28.4-16.4L315 79a31.8 31.8 0 0 0-54 0l-17.5 28a32 32 0 1 1-54.3-33.9l17.5-28zm254.8 206.8a32 32 0 0 1 43.6 10.5l24.4 39.1a95.9 95.9 0 0 1-81.2 146.6L352 448v32a24 24 0 0 1-41 17l-64-64a23.9 23.9 0 0 1 0-33.9l64-64a24 24 0 0 1 41 17v32h96.2a31.9 31.9 0 0 0 27-48.7l-24.4-39.1a32 32 0 0 1 10.7-44.4zm-364.6-31L68 204.2a24 24 0 0 1 5.8-43.9l87.4-23.4a24 24 0 0 1 29.4 17l23.4 87.3c2.5 9.4-.9 19.3-8.6 25.3s-18.2 6.6-26.6 1.7l-26.5-15.3-51.5 82.4a31.8 31.8 0 0 0 27 48.7H160a32 32 0 1 1 0 64h-32.2a95.8 95.8 0 0 1-81.2-146.6l50.3-80.5z"/></symbol>
<symbol id="reddit" viewBox="0 0 512 512"><path d="M373 138.6a53.4 53.4 0 0 1-51.9-41 63.1 63.1 0 0 0-54.2 62.4v.2a256.8 256.8 0 0 1 124.9 36.3 74.6 74.6 0 1 1 77.5 126.7c-2.4 86.8-97 156.6-213.2 156.6S45.5 410.1 43 323.4a74.7 74.7 0 1 1 77.4-126.8 256 256 0 0 1 123.7-36.4v-.3a86.1 86.1 0 0 1 76.8-85.5 53.3 53.3 0 1 1 52.1 64.2zM157.5 255.3c-20.9 0-38.9 20.8-40.2 47.9s17.1 38.1 38 38.1 36.6-9.8 37.8-36.9-14.7-49.1-35.7-49.1zM395 303.1c-1.2-27.1-19.2-47.9-40.2-47.9s-36.9 22-35.7 49.1c1.2 27.1 16.9 36.9 37.8 36.9s39.3-11 38-38.1zm-60.1 70.8a6 6 0 0 0-4.9-8.1 746.1 746.1 0 0 0-147.6 0 6 6 0 0 0-4.9 8.1 85.3 85.3 0 0 0 157.4 0z"/></symbol>
<symbol id="right-from-bracket" viewBox="0 0 512 512"><path d="M160 96a32 32 0 1 0 0-64H96C43 32 0 75 0 128v256c0 53 43 96 96 96h64a32 32 0 1 0 0-64H96a32 32 0 0 1-32-32V128a32 32 0 0 1 32-32h64zm344.5 177.4a23.8 23.8 0 0 0 0-34.8l-144-136A24 24 0 0 0 320 120v72H192a32 32 0 0 0-32 32v64a32 32 0 0 0 32 32h128v72a24 24 0 0 0 40.5 17.4l144-136z"/></symbol>
<symbol id="right-left" viewBox="0 0 512 512"><path d="M32 96h320V32a32.1 32.1 0 0 1 54.7-22.7l96 96a32 32 0 0 1 0 45.2l-96 96a32 32 0 0 1-54.7-22.7V160H32a32 32 0 1 1 0-64zm448 256a32 32 0 1 1 0 64H160v64a32.1 32.1 0 0 1-54.7 22.7l-96-96a32 32 0 0 1 0-45.2l96-96a32 32 0 0 1 54.7 22.7v64h320z"/></symbol>
<symbol id="rocket" viewBox="0 0 512 512"><path d="M156.6 384.9 125.7 354a31.3 31.3 0 0 1-7.7-32.2c3-8.9 7-20.5 11.8-33.8H24a23.9 23.9 0 0 1-20.7-36.2l52.5-88.5a72 72 0 0 1 61.9-35.3H200c2.4-4 4.8-7.7 7.2-11.3C289.1-4.1 411.1-8.1 483.9 5.3a28.4 28.4 0 0 1 22.8 22.8c13.4 72.9 9.3 194.8-111.4 276.7-3.5 2.4-7.3 4.8-11.3 7.2v82.3c0 25.4-13.4 49-35.3 61.9l-88.5 52.5A23.9 23.9 0 0 1 224 488V380.8c-14.1 4.9-26.4 8.9-35.7 11.9a31.5 31.5 0 0 1-31.8-7.8zM384 168a40 40 0 1 0 0-80 40 40 0 0 0 0 80z"/></symbol>
<symbol id="rocket-launch" viewBox="0 0 512 512"><path d="M117.8 128H207C286.9-3.7 409.5-8.5 483.9 5.3a28.4 28.4 0 0 1 22.8 22.8c13.8 74.4 9 197-122.7 276.9v89.3c0 25.4-13.4 49-35.3 61.9l-88.5 52.5A23.9 23.9 0 0 1 224 488V373.3a85.3 85.3 0 0 0-85.3-85.3H24a23.9 23.9 0 0 1-20.7-36.2l52.5-88.5a72 72 0 0 1 61.9-35.3zm306.2 0a40 40 0 1 0-80 0 40 40 0 0 0 80 0zM166.5 470C117 519.5.5 511.5.5 511.5s-8-116.5 41.5-166A88 88 0 1 1 166.5 470zm-46.7-36.4a29.3 29.3 0 0 0-41.4-41.4c-16.5 16.5-13.8 55.2-13.8 55.2s38.7 2.7 55.2-13.8z"/></symbol>
<symbol id="sack-dollar" viewBox="0 0 512 512"><path d="M320 96H192l-47.4-71.1A16 16 0 0 1 157.9 0h196.2a16 16 0 0 1 13.3 24.9L320 96zm-128 32h128l13 8.4c56.7 36.3 179 114.5 179 279.6 0 53-43 96-96 96H96c-53 0-96-43-96-96 0-165.1 122.3-243.3 179-279.6l13-8.4zm84.1 96a20.1 20.1 0 0 0-40.2 0v6a82 82 0 0 0-15.9 5.1 51.5 51.5 0 0 0-31.1 37.7c-1.8 10.2-.8 20 3.4 29 4.2 8.8 10.7 15 17.3 19.5a142.5 142.5 0 0 0 38.6 16l2.2.7c13.9 4.2 23.4 7.4 29.3 11.7 2.5 1.8 3.4 3.2 3.8 4.1.3.8.9 2.6.2 6.7-.6 3.5-2.5 6.4-8 8.8-6.1 2.6-16 3.9-28.8 1.9-6-1-16.7-4.6-26.2-7.9l-6.3-2.1a20 20 0 1 0-12.6 38l4.4 1.5a342 342 0 0 0 29.8 9.1v6.2a20.1 20.1 0 0 0 40.2 0v-5.5c5.4-1 10.5-2.5 15.4-4.6a50.9 50.9 0 0 0 31.6-38.7c1.8-10.4 1-20.3-3-29.4a50.2 50.2 0 0 0-16.9-20.5c-12.2-8.8-28.3-13.7-40.4-17.4l-.8-.2a123 123 0 0 1-29.9-11.4c-2.6-1.8-3.4-3-3.6-3.5-.2-.3-.7-1.6-.1-5 .3-1.9 1.9-5.2 8.2-8.1a51.8 51.8 0 0 1 28.6-2.6c4.3.7 17.9 3.3 21.7 4.3a20 20 0 0 0 10.3-38.7c-4.4-1.2-14.4-3.2-21-4.4V224z"/></symbol>
<symbol id="screwdriver-wrench" viewBox="0 0 512 512"><path d="M78.6 5A24 24 0 0 0 47 7L7 47a24 24 0 0 0-2.1 31.6l80 104a24 24 0 0 0 19 9.4H158l109 109a77.2 77.2 0 0 0 14.3 89.6l112 112a32 32 0 0 0 45.3 0l64-64a32 32 0 0 0 0-45.3l-112-112A77.4 77.4 0 0 0 301 267L192 158v-54c0-7.5-3.5-14.5-9.4-19L78.6 5zM19.9 396.1a68 68 0 0 0 96 96l117.8-117.8c-7.8-20.9-9-43.6-3.6-65.1l-61.7-61.7L19.9 396.1zM512 144c0-10.5-1.1-20.7-3.2-30.5-2.4-11.2-16.1-14.1-24.2-6l-63.9 63.9a16 16 0 0 1-11.3 4.7H352a16 16 0 0 1-16-16v-57.5a16 16 0 0 1 4.7-11.3l63.9-63.9c8.1-8.1 5.2-21.8-6-24.2A144 144 0 0 0 224 144v.8l85.3 85.3c36-9.1 75.8.5 104 28.7l15.7 15.7c49-23 83-72.8 83-130.5zM104 432a24 24 0 1 1-48 0 24 24 0 1 1 48 0z"/></symbol>
<symbol id="solar-system" viewBox="0 0 512 512"><path d="M448 256a191 191 0 0 1-36.2 112.2 48 48 0 1 0 51.3 38.4A256 256 0 0 0 138.8 28.4a80.2 80.2 0 0 1 36 53.6A192 192 0 0 1 448 256zM256 448a192 192 0 0 1-155.8-304.2 48 48 0 1 0-51.3-38.4 256 256 0 0 0 323.9 378.5 80 80 0 0 1-35.6-53.8A191.8 191.8 0 0 1 256 448zm133.2-265.3a40 40 0 0 0-48.7-53 152 152 0 1 0 48.7 53zM312 168.4a40 40 0 0 0 36.2 39.5 104.1 104.1 0 1 1-36.2-39.4zm8 87.6a64 64 0 1 0-128.1.1A64 64 0 0 0 320 256z"/></symbol>
<symbol id="sort-down" viewBox="0 0 320 512"><path d="M182.6 342.6a32 32 0 0 1-45.3 0l-128-128A32 32 0 0 1 32 160h256a32.1 32.1 0 0 1 22.6 54.7l-127.9 128h-.1Z"/></symbol>
<symbol id="sort-up" viewBox="0 0 320 512"><path d="M182.6 169.3a32 32 0 0 0-45.3 0l-128 128A32 32 0 0 0 32 352h256a32.1 32.1 0 0 0 22.6-54.7l-127.9-128h-.1Z"/></symbol>
<symbol id="space-station-moon" viewBox="0 0 512 512"><path d="M512 256c0 7.8-.3 15.5-1 23.1-72.2 25.6-159.8 40.9-255 40.9S73.2 304.7 1 279.1c-.7-7.6-1-15.3-1-23.1C0 114.6 114.6 0 256 0s256 114.6 256 256zM256 512C134.9 512 33.4 427.9 6.8 314.8 79.4 338.4 164.7 352 256 352s176.6-13.6 249.2-37.2C478.6 427.9 377.1 512 256 512zm-32-352c0 17.7-14.3 32-32 32s-32-14.3-32-32 14.3-32 32-32 32 14.3 32 32zm48 0c0-44.2-35.8-80-80-80s-80 35.8-80 80 35.8 80 80 80 80-35.8 80-80z"/></symbol>
<symbol id="space-station-moon-construction" viewBox="0 0 512 512"><path d="M511 279.1a251.8 251.8 0 0 0-1-55.1h-62v-64h-96V96h64V56.1a256 256 0 0 0-415 223C73.2 304.7 160.8 320 256 320s182.8-15.3 255-40.9zM6.8 314.8A256 256 0 0 0 448 425.3V384h-64v-41.2c-40.7 6-83.7 9.2-128 9.2A814 814 0 0 1 6.8 314.8zM192 192a32 32 0 1 0 0-64 32 32 0 0 0 0 64zm0 48a80 80 0 1 1 0-160 80 80 0 0 1 0 160z"/></symbol>
<symbol id="star" viewBox="0 0 576 512"><path d="M316.9 18a32 32 0 0 0-57.6 0L195 150.3 51.4 171.5a32 32 0 0 0-17.8 54.4L137.8 329l-24.6 145.7a32.1 32.1 0 0 0 46.7 33.6l128.3-68.5 128.3 68.5a32 32 0 0 0 46.7-33.6L438.5 329l104.2-103.1a32 32 0 0 0-17.8-54.4l-143.7-21.2L316.9 18z"/></symbol>
<symbol id="star-half" viewBox="0 0 576 512"><path d="m288 376.4.1-.1 26.4 14.1 85.2 45.5-16.5-97.6-4.8-28.7 20.7-20.5 70.1-69.3-96.1-14.2-29.3-4.3-12.9-26.6-42.8-87.8-.1.3v289.2zm175.1 98.3a32.1 32.1 0 0 1-46.7 33.6l-128.3-68.5-128.3 68.5a32.2 32.2 0 0 1-46.7-33.6L137.8 329 33.6 225.9a32 32 0 0 1 17.8-54.4L195 150.3 259.4 18a32 32 0 0 1 57.6 0l64.3 132.3 143.6 21.2a32 32 0 0 1 17.8 54.4L438.5 329l24.6 145.7z"/></symbol>
<symbol id="square-check" viewBox="0 0 448 512"><path d="M64 32C29 32 0 61 0 96v320c0 35 29 64 64 64h320c35 0 64-29 64-64V96c0-35-29-64-64-64H64zm273 177L209 337c-9 9-25 9-34 0l-64-64c-9-9-9-25 0-34s25-9 34 0l47 47 111-111c9-9 25-9 34 0s9 25 0 34z"/></symbol>
<symbol id="square-empty" viewBox="0 0 448 512"><path d="M384 80c9 0 16 7 16 16v320c0 9-7 16-16 16H64c-9 0-16-7-16-16V96c0-9 7-16 16-16h320zM64 32C29 32 0 61 0 96v320c0 35 29 64 64 64h320c35 0 64-29 64-64V96c0-35-29-64-64-64H64z"/></symbol>
<symbol id="square" viewBox="0 0 448 512"><path d="M0 96c0-35 29-64 64-64h320c35 0 64 29 64 64v320c0 35-29 64-64 64H64c-35 0-64-29-64-64V96z"/></symbol>
<symbol id="trash" viewBox="0 0 448 512"><path d="M32 464a48 48 0 0 0 48 48h288a48 48 0 0 0 48-48V128H32zm272-256a16 16 0 0 1 32 0v224a16 16 0 0 1-32 0zm-96 0a16 16 0 0 1 32 0v224a16 16 0 0 1-32 0zm-96 0a16 16 0 0 1 32 0v224a16 16 0 0 1-32 0zM432 32H312l-9-19a24 24 0 0 0-22-13H167a24 24 0 0 0-22 13l-9 19H16A16 16 0 0 0 0 48v32a16 16 0 0 0 16 16h416a16 16 0 0 0 16-16V48a16 16 0 0 0-16-16z"/></symbol>
<symbol id="trophy" viewBox="0 0 576 512"><path d="M400 0H176a46.9 46.9 0 0 0-47.1 48.2l.7 15.8H24A24 24 0 0 0 0 88c0 92.6 33.5 157 78.5 200.7 44.3 43.1 98.3 64.8 138.1 75.8 23.4 6.5 39.4 26 39.4 45.6a38 38 0 0 1-37.9 37.9H192a32 32 0 1 0 0 64h192a32 32 0 1 0 0-64h-26.1a38 38 0 0 1-37.9-37.9c0-19.6 15.9-39.2 39.4-45.6 39.9-11 93.9-32.7 138.2-75.8C542.5 245 576 180.6 576 88a24 24 0 0 0-24-24H446.4l.7-15.8A46.9 46.9 0 0 0 400 0zM48.9 112h84.4c9.1 90.1 29.2 150.3 51.9 190.6a248.4 248.4 0 0 1-73.2-48.3c-32-31.1-58-76-63-142.3zm415.2 142.3a248.4 248.4 0 0 1-73.2 48.3c22.7-40.3 42.8-100.5 51.9-190.6h84.4c-5.1 66.3-31.1 111.2-63 142.3z"/></symbol>
<symbol id="turn-down" viewBox="0 0 384 512"><path d="M350 335c4 8 2 19-5 26L209 505a24 24 0 0 1-34 0L39 361a24 24 0 0 1 17-41h88V128c0-18-14-32-32-32H32C14 96 0 82 0 64V32C0 14 14 0 32 0h80c71 0 128 57 128 128v192h88c10 0 18 6 22 15z"/></symbol>
<symbol id="turn-up" viewBox="0 0 384 512"><path d="M350 177.5a24 24 0 0 0-4.6-26l-136-144a23.8 23.8 0 0 0-34.8 0l-136 144A24 24 0 0 0 56 192h88v192a32 32 0 0 1-32 32H32a32 32 0 0 0-32 32v32a32 32 0 0 0 32 32h80a128 128 0 0 0 128-128V192h88a24 24 0 0 0 22-14.5z"/></symbol>
<symbol id="up-down-left-right" viewBox="0 0 512 512"><path d="M278.6 9.4a32 32 0 0 0-45.3 0l-64 64a32 32 0 0 0 22.7 54.7h32v96h-96v-32a32.1 32.1 0 0 0-54.7-22.7l-64 64a32 32 0 0 0 0 45.3l64 64A32 32 0 0 0 128 320v-32h96v96h-32a32.1 32.1 0 0 0-22.7 54.7l64 64a32 32 0 0 0 45.3 0l64-64a32 32 0 0 0-22.7-54.7h-32v-96h96v32a32.1 32.1 0 0 0 54.7 22.7l64-64a32 32 0 0 0 0-45.3l-64-64a32 32 0 0 0-54.7 22.7v32h-96v-96h32a32.1 32.1 0 0 0 22.7-54.7l-64-64z"/></symbol>
<symbol id="up-from-bracket" viewBox="0 0 448 512"><path d="M70 153 199 11c6-7 14-11 23-11h4c9 0 18 4 24 11l128 142a23 23 0 0 1-17 39h-73v128c0 18-14 32-32 32h-64c-18 0-32-14-32-32V192H87a23 23 0 0 1-17-39zm-6 199v64c0 18 14 32 32 32h256c18 0 32-14 32-32v-64a32 32 0 1 1 64 0v64c0 53-43 96-96 96H96c-53 0-96-43-96-96v-64a32 32 0 1 1 64 0z"/></symbol>
<symbol id="user-group" viewBox="0 0 640 512"><path d="M352 128a128 128 0 1 1-256 0 128 128 0 0 1 256 0zM0 482.3C0 383.8 79.8 304 178.3 304h91.4c98.5 0 178.3 79.8 178.3 178.3a29.7 29.7 0 0 1-29.7 29.7H29.7A29.7 29.7 0 0 1 0 482.3zM609.3 512H471.4a64 64 0 0 0 8.6-32v-8c0-60.7-27.1-115.2-69.8-151.8l7.1-.2h61.4c89.1 0 161.3 72.2 161.3 161.3 0 17-13.8 30.7-30.7 30.7zM432 256c-31 0-59-12.6-79.3-32.9a159.2 159.2 0 0 0 13-169.4A112 112 0 1 1 432 256z"/></symbol>
<symbol id="user-plus" viewBox="0 0 640 512"><path d="M96 128a128 128 0 1 1 256 0 128 128 0 1 1-256 0zM0 482c0-98 80-178 178-178h92c98 0 178 80 178 178 0 17-13 30-30 30H30c-17 0-30-13-30-30zm504-170v-64h-64a24 24 0 1 1 0-48h64v-64a24 24 0 1 1 48 0v64h64a24 24 0 1 1 0 48h-64v64a24 24 0 1 1-48 0z"/></symbol>
<symbol id="user-xmark" viewBox="0 0 640 512"><path d="M96 128a128 128 0 1 1 256 0 128 128 0 1 1-256 0zM0 482c0-98 80-178 178-178h92c98 0 178 80 178 178 0 17-13 30-30 30H30c-17 0-30-13-30-30zm471-339c9-9 25-9 34 0l47 47 47-47c9-9 24-9 34 0s9 25 0 34l-47 47 47 47c9 9 9 24 0 34s-25 9-34 0l-47-47-47 47c-10 9-25 9-34 0s-9-25 0-34l47-47-47-47c-9-10-9-25 0-34z"/></symbol>
<symbol id="users" viewBox="0 0 640 512"><path d="M144 0a80 80 0 1 1 0 160 80 80 0 1 1 0-160zm368 0a80 80 0 1 1 0 160 80 80 0 1 1 0-160zM0 299c0-59 48-107 107-107h42c16 0 31 4 45 10l-2 22c0 38 17 73 43 96H21c-11 0-21-10-21-21zm405 21a128 128 0 0 0 41-118c14-7 29-10 45-10h42c59 0 107 48 107 107 0 11-10 21-21 21H405zm-181-96a96 96 0 1 1 192 0 96 96 0 1 1-192 0zm-96 261c0-73 60-133 133-133h118c73 0 133 60 133 133 0 15-12 27-27 27H155c-15 0-27-12-27-27z"/></symbol>
<symbol id="volume" viewBox="0 0 576 512"><path d="M333.1 34.8A32 32 0 0 1 352 64v384a32 32 0 0 1-53.3 23.9L163.8 352H96a64 64 0 0 1-64-64v-64a64 64 0 0 1 64-64h67.8L298.7 40.1a32.1 32.1 0 0 1 34.4-5.3zm172 72.2a191.9 191.9 0 0 1 0 298 24 24 0 1 1-30.3-37.3 143.8 143.8 0 0 0 0-223.5 24 24 0 0 1 30.3-37.3zm-60.5 74.5a96.1 96.1 0 0 1 0 149 24 24 0 1 1-30.3-37.3 47.9 47.9 0 0 0 0-74.5 24 24 0 0 1 30.3-37.3z"/></symbol>
<symbol id="wrench" viewBox="0 0 512 512"><path d="M352 320c88.4 0 160-71.6 160-160 0-15.3-2.2-30.1-6.2-44.2-3.1-10.8-16.4-13.2-24.3-5.3l-76.8 76.8c-3 3-7.1 4.7-11.3 4.7H336c-8.8 0-16-7.2-16-16v-57.4c0-4.2 1.7-8.3 4.7-11.3l76.8-76.8c7.9-7.9 5.4-21.2-5.3-24.3C382.1 2.2 367.3 0 352 0c-88.4 0-160 71.6-160 160 0 19.1 3.4 37.5 9.5 54.5L19.9 396.1a67.9 67.9 0 0 0 96 96l181.6-181.6c17 6.2 35.4 9.5 54.5 9.5zM80 408a24 24 0 1 1 0 48 24 24 0 1 1 0-48z"/></symbol>
<symbol id="xmark" viewBox="0 0 320 512"><path d="M310.6 150.6a32 32 0 0 0-45.3-45.3L160 210.7 54.6 105.4a32 32 0 0 0-45.3 45.3L114.7 256 9.4 361.4a32 32 0 0 0 45.3 45.3L160 301.3l105.4 105.3a32 32 0 0 0 45.3-45.3L205.3 256l105.3-105.4z"/></symbol>
<symbol id="x" viewBox="0 0 512 512"><path d="M389.2 48h70.6L305.6 224.2 487 464H345L233.7 318.6 106.5 464H35.8L200.7 275.5 26.8 48H172.4L272.9 180.9 389.2 48zM364.4 421.8h39.1L151.1 88h-42L364.4 421.8z"/></symbol>
<symbol id="T_Agriculture" viewBox="0 0 640 512"><path d="M96 64a64 64 0 0 1 64-64h106.3a63.9 63.9 0 0 1 59.4 40.2l48 119.8H480v-33.8c0-24.8 5.8-49.3 16.9-71.6l2.5-5a32 32 0 1 1 57.2 28.6l-2.5 5a95.3 95.3 0 0 0-10.1 42.9V160h56a40 40 0 0 1 40 40v45.4a48 48 0 0 1-22.6 40.7l-43.3 27.1A120 120 0 0 0 432 352h-80a32 32 0 0 1-32 32h-8.2c-1.7 4.8-3.7 9.5-5.8 14.1l5.8 5.8a32 32 0 0 1 0 45.3l-22.6 22.6a32 32 0 0 1-45.3 0l-5.8-5.8a144 144 0 0 1-14.1 5.8v8.2a32 32 0 0 1-32 32h-32a32 32 0 0 1-32-32v-8.2c-4.8-1.7-9.5-3.7-14.1-5.8l-5.8 5.8a32 32 0 0 1-45.3 0l-22.6-22.7a32 32 0 0 1 0-45.3L46 398a144 144 0 0 1-5.8-14.1H32a32 32 0 0 1-32-32V320a32 32 0 0 1 32-32h8.2c1.7-4.8 3.7-9.5 5.8-14.1l-5.8-5.8a32 32 0 0 1 0-45.3l22.6-22.6c9-9 21.9-11.5 33.1-7.6V64zm170.3 0H160v96h144.7l-38.4-96zM176 256a80 80 0 1 0 0 160 80 80 0 1 0 0-160zm352 192a24 24 0 1 0 0-48 24 24 0 1 0 0 48zm0 64a88 88 0 1 1 0-176 88 88 0 0 1 0 176z"/></symbol>
<symbol id="T_Construction" viewBox="0 0 512 512"><path d="m174 128 42-108c5-12 17-20 30-20h20c13 0 25 8 30 20l42 108H174zm-25 64h214l38 96H111l38-96zM48 448l38-96h340l38 96h16a32 32 0 1 1 0 64H32a32 32 0 1 1 0-64h16z"/></symbol>
<symbol id="T_Electronics" viewBox="0 0 512 512"><path d="M176 24a24 24 0 1 0-48 0v40c-35 0-64 29-64 64H24a24 24 0 1 0 0 48h40v56H24a24 24 0 1 0 0 48h40v56H24a24 24 0 1 0 0 48h40c0 35 29 64 64 64v40a24 24 0 1 0 48 0v-40h56v40a24 24 0 1 0 48 0v-40h56v40a24 24 0 1 0 48 0v-40c35 0 64-29 64-64h40a24 24 0 1 0 0-48h-40v-56h40a24 24 0 1 0 0-48h-40v-56h40a24 24 0 1 0 0-48h-40c0-35-29-64-64-64V24a24 24 0 1 0-48 0v40h-56V24a24 24 0 1 0-48 0v40h-56V24zm-16 104h192c18 0 32 14 32 32v192c0 18-14 32-32 32H160c-18 0-32-14-32-32V160c0-18 14-32 32-32zm192 32H160v192h192V160z"/></symbol>
<symbol id="T_FoodProduction" viewBox="0 0 512 512"><path d="M61.1 224a29 29 0 0 1-28.5-34.7C37.9 168.3 78.8 32 256 32s218.1 136.3 223.4 157.3a29 29 0 0 1-28.5 34.7H61.1zm82.9-96a16 16 0 1 0-32 0 16 16 0 1 0 32 0zm240 16a16 16 0 1 0 0-32 16 16 0 1 0 0 32zM272 96a16 16 0 1 0-32 0 16 16 0 1 0 32 0zM16 304a48 48 0 0 1 48-48h384a48 48 0 0 1 0 96H64a48 48 0 0 1-48-48zm16 96a16 16 0 0 1 16-16h416a16 16 0 0 1 16 16v16a64 64 0 0 1-64 64H96a64 64 0 0 1-64-64v-16z"/></symbol>
<symbol id="T_Chemistry" viewBox="0 0 448 512"><path d="M288 0H128a32 32 0 1 0 0 64v132.8c0 11.8-3.3 23.5-9.5 33.5L10.3 406.2A69.4 69.4 0 0 0 69.4 512h309.2a69.4 69.4 0 0 0 59.1-105.8L329.5 230.4a64 64 0 0 1-9.5-33.5V64a32 32 0 1 0 0-64h-32zm-96 196.8V64h64v132.8c0 23.7 6.6 46.9 19 67.1l34.5 56.1h-171l34.5-56.1c12.4-20.2 19-43.4 19-67.1z"/></symbol>
<symbol id="T_Manufacturing" viewBox="0 0 640 512"><path d="M64 32C64 14 78 0 96 0h192c18 0 32 14 32 32v192c0 18-14 32-32 32H96c-18 0-32-14-32-32V32zm320 64c0-18 14-32 32-32h128c18 0 32 14 32 32v128c0 18-14 32-32 32H416c-18 0-32-14-32-32V96zM0 416c0-53 43-96 96-96h448a96 96 0 0 1 0 192H96c-53 0-96-43-96-96zm160 0a32 32 0 1 0-64 0 32 32 0 1 0 64 0zm160 32a32 32 0 1 0 0-64 32 32 0 1 0 0 64zm224-32a32 32 0 1 0-64 0 32 32 0 1 0 64 0z"/></symbol>
<symbol id="T_Metallurgy" viewBox="0 0 448 512"><path d="M159.3 5.4a20.3 20.3 0 0 1 27.7.1 806.9 806.9 0 0 1 77.7 84c11-14.4 23.5-30.1 37-42.9a20.3 20.3 0 0 1 28 .1c34.6 33 63.9 76.6 84.5 118 20.3 40.8 33.8 82.5 33.8 111.9C448 404.2 348.2 512 224 512 98.4 512 0 404.1 0 276.5c0-38.4 17.8-85.3 45.4-131.7A639.7 639.7 0 0 1 159.3 5.4zM225.7 416c25.3 0 47.7-7 68.8-21 42.1-29.4 53.4-88.2 28.1-134.4-4.5-9-16-9.6-22.5-2l-25.2 29.3a16 16 0 0 1-24.7-.5l-62.8-79.8c-6.3-8-18.3-8.1-24.7-.1-33.8 42.5-50.8 69.3-50.8 99.4.1 68.5 50.7 109.1 113.8 109.1z"/></symbol>
<symbol id="T_ResourceExtraction" viewBox="0 0 576 512"><path d="M528.3 61.3a80 80 0 0 0-98-56.6l-15.4 4.1A32 32 0 0 0 392.3 48l24.5 91.4-108.3 28.1-6.3-18.1a32 32 0 0 0-60.4 0l-13.6 39L96 222.6V184a24 24 0 1 0-48 0v264H32a32 32 0 1 0 0 64h512a32 32 0 1 0 0-64H406.7L340 257.5l-62.2 16.1 27.5 78.4h-66.6l26.3-75-74.6 19.3L137.3 448H96V288.8l337.4-87.5 25.2 94a32 32 0 0 0 39.2 22.6l15.5-4.1a80 80 0 0 0 56.6-98L528.3 61.3zM205.1 448l11.2-32h111.4l11.2 32H205.1z"/></symbol>
<symbol id="T_Science" viewBox="0 0 512 512"><path d="M256 398.8a422.8 422.8 0 0 1-34.9 13.5c16.7 33.8 31 35.7 34.9 35.7s18.1-1.9 34.9-35.7a478.8 478.8 0 0 1-34.9-13.5zM446 256c33 45.2 44.3 90.9 23.6 128-20.2 36.3-62.5 49.3-115.2 43.2-22 52.1-55.6 84.8-98.4 84.8s-76.4-32.7-98.4-84.8c-52.7 6.1-95-6.8-115.2-43.2C21.7 346.9 33 301.2 66 256c-33-45.2-44.3-90.9-23.6-128 20.2-36.3 62.5-49.3 115.2-43.2C179.6 32.7 213.2 0 256 0s76.4 32.7 98.4 84.8c52.7-6.1 95 6.8 115.2 43.2 20.7 37.1 9.4 82.8-23.6 128zm-65.8 67.4c-1.7 14.2-3.9 28-6.7 41.2 31.8 1.4 38.6-8.7 40.2-11.7 2.3-4.2 7-17.9-11.9-48.1-6.8 6.3-14 12.5-21.6 18.6zm-6.7-175.9c2.8 13.1 5 26.9 6.7 41.2 7.6 6.1 14.8 12.3 21.6 18.6 18.9-30.2 14.2-44 11.9-48.1-1.6-2.9-8.4-13-40.2-11.7zm-82.6-47.8C274.1 65.9 259.9 64 256 64s-18.1 1.9-34.9 35.7c11.4 3.9 23.1 8.4 34.9 13.5 11.8-5.1 23.4-9.7 34.9-13.5zm-159 88.9c1.7-14.3 3.9-28 6.7-41.2-31.8-1.4-38.6 8.7-40.2 11.7-2.3 4.2-7 17.9 11.9 48.1 6.8-6.3 14-12.5 21.6-18.6zm-21.7 116.2C91.4 335 96 348.7 98.3 352.9c1.6 2.9 8.4 13 40.2 11.7-2.8-13.1-5-26.9-6.7-41.2a402.2 402.2 0 0 1-21.6-18.6zM336 256a80 80 0 1 0-160 0 80 80 0 1 0 160 0zm-80-32a32 32 0 1 1 0 64 32 32 0 1 1 0-64z"/></symbol>
<symbol id="R_Leader" viewBox="0 0 534 512"><path d="m525.4 187 1.9.5c7 2.2 9 11.3 3.6 16.3L395.7 322l39.8 175.1.2 2.1c0 7.4-8 12-14.3 8.2l-154.3-92-154.4 92a9.5 9.5 0 0 1-14-10.3L138.4 322 3.3 203.8A9.6 9.6 0 0 1 8.7 187l178.8-16.3 70.8-165a9.6 9.6 0 0 1 17.5 0l70.8 165L525.4 187ZM214 60.8A219.4 219.4 0 0 0 78.5 161.6l-23 2.1A239 239 0 0 1 223.2 39.1l-9.3 21.6Zm106.2 0L310.8 39a238.6 238.6 0 0 1 167.8 124.6l-23-2.1a219 219 0 0 0-135.5-101Zm184.4 191.5a238 238 0 0 1-63.3 184l-5.2-23a218.4 218.4 0 0 0 50.4-139.7v-5.3ZM47.7 273.5a219 219 0 0 0 50.4 139.8L93 436.2a237.5 237.5 0 0 1-63.2-184l18 16v5.3Zm291.4 207.2 20.9 12.4a237.9 237.9 0 0 1-185.8 0l20.9-12.4a217 217 0 0 0 144 0Z"/></symbol>
<symbol id="R_Officer" viewBox="0 0 354 512"><path d="m177 393 177-91v118l-177 92L0 421V302Zm0-151 177-91v119l-177 91L0 270V151ZM354 0v119l-177 91L0 119V0l177 91Z"/></symbol>
<symbol id="R_Member" viewBox="0 0 354 512"><path d="M0 151v119l177 91 177-91V151l-177 91L0 151Z"/></symbol>
</svg>